Coordinates
version=1
nRows=14
nColumns=24
inDegrees=yes

Units are S.I. units (second, meters, Newtons, ...)
Angles are in degrees.

endheader
time	pelvis_tilt	pelvis_list	pelvis_rotation	pelvis_tx	pelvis_ty	pelvis_tz	hip_flexion_r	hip_adduction_r	hip_rotation_r	knee_angle_r	ankle_angle_r	subtalar_angle_r	mtp_angle_r	hip_flexion_l	hip_adduction_l	hip_rotation_l	knee_angle_l	ankle_angle_l	subtalar_angle_l	mtp_angle_l	lumbar_extension	lumbar_bending	lumbar_rotation
      3.42000000	    -11.14906707	      3.84603121	     -0.55316337	     -1.99188875	     -0.01707271	     -0.73435917	     17.95000627	     -7.14767773	     -3.39420615	    -62.33195261	    -24.51307742	    -19.31753039	     -3.01213187	     27.16261910	      5.54341633	    -13.08590219	    -22.35149242	      1.60148879	     -9.50982282	      4.50651859	      7.22566829	     -5.19033052	     -0.15118903
      3.42500000	    -11.18535300	      3.76787034	     -0.43255453	     -1.98652600	     -0.01624898	     -0.73524159	     18.85938835	     -7.06137859	     -3.39869798	    -63.27861890	    -23.73224801	    -19.31905731	     -2.68935364	     26.67802348	      5.60996370	    -12.96183092	    -22.06140567	      1.83050940	     -9.37062826	      4.59905978	      7.21293138	     -5.10833966	     -0.42633680
      3.43000000	    -11.25263965	      3.67157221	     -0.32923678	     -1.98120096	     -0.01545011	     -0.73612025	     19.80077218	     -6.94672133	     -3.38365976	    -64.14835033	    -22.85132510	    -19.22039719	     -2.26866842	     26.22241334	      5.65446454	    -12.81816620	    -21.75848412	      2.05296800	     -9.26138479	      4.66357457	      7.23545781	     -4.99744347	     -0.65982725
      3.43500000	    -11.32656133	      3.56338219	     -0.23962722	     -1.97592164	     -0.01464237	     -0.73698597	     20.74324840	     -6.81190535	     -3.35966853	    -64.93228190	    -21.91720825	    -19.07534649	     -1.73082514	     25.77228844	      5.68230542	    -12.66826169	    -21.44623189	      2.24538937	     -9.18219952	      4.68409958	      7.26381996	     -4.86710265	     -0.87288976
      3.44000000	    -11.43899263	      3.49501251	     -0.17027863	     -1.97064648	     -0.01389167	     -0.73789311	     21.72912515	     -6.72450628	     -3.30602221	    -65.62518889	    -21.09875095	    -19.00994104	     -0.53841673	     25.34494824	      5.75958589	    -12.50130144	    -21.09315047	      2.41457094	     -9.19539663	      4.52303598	      7.34245476	     -4.76498606	     -1.04408138
      3.44500000	    -11.44248100	      3.34750520	     -0.04696330	     -1.96533996	     -0.01297320	     -0.73876309	     22.53552690	     -6.55359818	     -3.34307467	    -66.20719233	    -20.09351368	    -18.79313780	     -0.06989004	     24.79740506	      5.75606197	    -12.32588471	    -20.74999168	      2.63999658	     -9.03484149	      4.54673435	      7.30109321	     -4.59931183	     -1.30526642
      3.45000000	    -11.50740559	      3.26328105	     -0.00360280	     -1.96006079	     -0.01216166	     -0.73962115	     23.43784428	     -6.42823875	     -3.27522784	    -66.73644734	    -19.14772962	    -18.57831746	      0.81645243	     24.29718605	      5.80537403	    -12.17904363	    -20.35591498	      2.78057763	     -9.06911733	      4.41301508	      7.33787295	     -4.46955396	     -1.42110701
      3.45500000	    -11.52296795	      3.16120098	      0.09190720	     -1.95474814	     -0.01128509	     -0.74049070	     24.24225327	     -6.29962953	     -3.27345578	    -67.15974754	    -18.22829028	    -18.38517524	      1.61716969	     23.73288398	      5.84726970	    -12.00220884	    -19.95204077	      2.96092316	     -8.97940508	      4.31956374	      7.32367377	     -4.33757928	     -1.63520086
      3.46000000	    -11.52816505	      3.08393545	      0.17819900	     -1.94942899	     -0.01042317	     -0.74134754	     25.02556223	     -6.19767144	     -3.27292659	    -67.51098765	    -17.34319717	    -18.23234143	      2.39130814	     23.14697224	      5.91098458	    -11.85401150	    -19.52443638	      3.11208279	     -8.91786836	      4.21565887	      7.30379046	     -4.22627582	     -1.83064756
      3.46500000	    -11.51340805	      3.02514617	      0.29766817	     -1.94411355	     -0.00955779	     -0.74217224	     25.76576577	     -6.12741646	     -3.32504881	    -67.79399835	    -16.46839504	    -18.14906672	      2.87099740	     22.53988439	      5.98979342	    -11.74654743	    -19.09362669	      3.24434385	     -8.77844166	      4.18447244	      7.25946292	     -4.14974651	     -2.08359889
      3.47000000	    -11.47409972	      2.99753689	      0.35299818	     -1.93875751	     -0.00867862	     -0.74303807	     26.46844557	     -6.07401101	     -3.29003337	    -67.96382782	    -15.77195703	    -18.13770673	      4.06843569	     21.86634030	      6.10726319	    -11.59313061	    -18.59233251	      3.34800733	     -8.80761082	      3.93239708	      7.20476213	     -4.07274294	     -2.21285450
      3.47500000	    -11.44861914	      2.92097946	      0.46766014	     -1.93339917	     -0.00785836	     -0.74386436	     27.15717698	     -5.98533472	     -3.36058221	    -68.09070534	    -14.97457164	    -18.08217935	      4.31732211	     21.23135286	      6.16079290	    -11.48580015	    -18.13865741	      3.53158615	     -8.62830258	      3.95916627	      7.16280629	     -3.96624122	     -2.42959289
      3.48000000	    -11.39762662	      2.87919437	      0.55415388	     -1.92800540	     -0.00703064	     -0.74465984	     27.80354673	     -5.92338881	     -3.40035017	    -68.14180385	    -14.21571471	    -18.05615394	      4.55931995	     20.54749186	      6.24290207	    -11.40100163	    -17.64462465	      3.65981577	     -8.49292306	      3.96656145	      7.10411185	     -3.88929965	     -2.60567947
      3.48500000	    -11.31549918	      2.83809468	      0.65247400	     -1.92259565	     -0.00616765	     -0.74545447	     28.37877816	     -5.86125797	     -3.43826953	    -68.09455422	    -13.47283591	    -18.02460426	      4.80611476	     19.82277909	      6.32537257	    -11.33371804	    -17.13341224	      3.74826126	     -8.35582360	      3.97018224	      7.01320849	     -3.81423137	     -2.80085446
